<svg xmlns="http://www.w3.org/2000/svg" width="256" height="256" viewBox="0 0 256 256" role="img" aria-labelledby="title desc">
  <title id="title">CMA Digital favicon</title>
  <desc id="desc">CMA Digital blue shutter-style isotipo favicon with central C.</desc>
  <defs>
    <linearGradient id="bladeGrad" x1="50%" y1="0%" x2="50%" y2="100%">
      <stop offset="0%" stop-color="#57E9F1"/>
      <stop offset="55%" stop-color="#20C4F1"/>
      <stop offset="100%" stop-color="#3561FF"/>
    </linearGradient>
  </defs>
  <g>
    <path d="M 119.98,36.35 L 201.47,72.63 Q 154.76,77.67 135.29,86.64 Q 125.77,96.08 118.78,62.40 Z" fill="url(#bladeGrad)"/><path d="M 203.36,75.23 L 212.69,163.95 Q 184.97,126.01 167.47,113.64 Q 154.53,110.11 180.20,87.22 Z" fill="url(#bladeGrad)"/><path d="M 211.38,166.88 L 139.21,219.31 Q 158.21,176.34 160.17,155.00 Q 156.76,142.03 189.42,152.81 Z" fill="url(#bladeGrad)"/><path d="M 136.02,219.65 L 54.53,183.37 Q 101.24,178.33 120.71,169.36 Q 130.23,159.92 137.22,193.60 Z" fill="url(#bladeGrad)"/><path d="M 52.64,180.77 L 43.31,92.05 Q 71.03,129.99 88.53,142.36 Q 101.47,145.89 75.80,168.78 Z" fill="url(#bladeGrad)"/><path d="M 44.62,89.12 L 116.79,36.69 Q 97.79,79.66 95.83,101.00 Q 99.24,113.97 66.58,103.19 Z" fill="url(#bladeGrad)"/>
    <circle cx="128" cy="128" r="31" fill="#02004F"/>
    <text x="128" y="140" text-anchor="middle" font-family="Arial, Helvetica, sans-serif" font-size="40" font-weight="700" fill="#FFFFFF">C</text>
  </g>
</svg>